<svg viewBox="0 0 64 64" xmlns="http://www.w3.org/2000/svg" xmlns:xlink="http://www.w3.org/1999/xlink"><defs><g id="a" stroke="#75d6ff" stroke-linecap="round" stroke-width="3"><path d="m32 3v29"/><path d="m32 14-7-7"/><path d="m32 14 7-7"/><path d="m32 23-5-5"/><path d="m32 23 5-5"/></g><g id="b" stroke="#75d6ff" stroke-linecap="round" stroke-width="3"><path d="m32 3v29"/><path d="m32 17-8-8"/><path d="m32 17 8-8"/></g></defs><use xlink:href="#a"/><use transform="matrix(.5 .8660254 -.8660254 .5 43.712813 -11.712813)" xlink:href="#b"/><use transform="matrix(-.5 .8660254 -.8660254 -.5 75.712813 20.287187)" xlink:href="#a"/><use transform="matrix(-1 0 0 -1 64 64)" xlink:href="#b"/><use transform="matrix(-.5 -.8660254 .8660254 -.5 20.287187 75.712813)" xlink:href="#a"/><use transform="matrix(.5 -.8660254 .8660254 .5 -11.712813 43.712813)" xlink:href="#b"/></svg>